<?xml version="1.0" encoding="UTF-8"?>
<svg width="24px" height="24px" viewBox="0 0 24 24" version="1.1" xmlns="http://www.w3.org/2000/svg">
    <g stroke="none" stroke-width="1" fill="none" fill-rule="evenodd">
        <path d="M20.84,4.61 C20.3292,4.099 19.7228,3.69364 19.0554,3.41708 C18.388,3.14052 17.6725,2.99817 16.95,2.99817 C16.2275,2.99817 15.512,3.14052 14.8446,3.41708 C14.1772,3.69364 13.5708,4.099 13.06,4.61 L12,5.67 L10.94,4.61 C9.9083,3.57831 8.50903,2.99871 7.05,2.99871 C5.59096,2.99871 4.19169,3.57831 3.16,4.61 C2.12831,5.64169 1.54871,7.04097 1.54871,8.5 C1.54871,9.95903 2.12831,11.3583 3.16,12.39 L4.22,13.45 L12,21.23 L19.78,13.45 L20.84,12.39 C21.351,11.8792 21.7563,11.2728 22.0329,10.6054 C22.3095,9.93801 22.4518,9.22249 22.4518,8.5 C22.4518,7.77751 22.3095,7.06199 22.0329,6.39462 C21.7563,5.72725 21.351,5.12084 20.84,4.61 Z" stroke="currentColor" stroke-width="2" stroke-linecap="round" stroke-linejoin="round"></path>
    </g>
</svg> 